<mxfile host="app.diagrams.net" modified="2023-08-29T02:34:24.575Z" agent="Mozilla/5.0 (Windows NT 10.0; Win64; x64) AppleWebKit/537.36 (KHTML, like Gecko) Chrome/116.0.0.0 Safari/537.36" etag="1f_rJvtQmR9Oh0GeAIA_" version="21.6.9" type="github">
  <diagram name="Page-1" id="5EIpkpFE2A80253lfTs_">
    <mxGraphModel dx="954" dy="610" grid="1" gridSize="10" guides="1" tooltips="1" connect="1" arrows="1" fold="1" page="1" pageScale="1" pageWidth="850" pageHeight="1100" math="0" shadow="0">
      <root>
        <mxCell id="0" />
        <mxCell id="1" parent="0" />
        <mxCell id="xz3piLwwKAhXTK9geHbD-7" value="" style="rounded=0;whiteSpace=wrap;html=1;" vertex="1" parent="1">
          <mxGeometry x="330" y="140" width="190" height="310" as="geometry" />
        </mxCell>
        <mxCell id="xz3piLwwKAhXTK9geHbD-8" value="cek&lt;br&gt;angka" style="ellipse;whiteSpace=wrap;html=1;" vertex="1" parent="1">
          <mxGeometry x="365" y="270" width="120" height="80" as="geometry" />
        </mxCell>
        <mxCell id="xz3piLwwKAhXTK9geHbD-9" value="tebak&lt;br&gt;angka" style="ellipse;whiteSpace=wrap;html=1;" vertex="1" parent="1">
          <mxGeometry x="365" y="360" width="120" height="80" as="geometry" />
        </mxCell>
        <mxCell id="xz3piLwwKAhXTK9geHbD-10" value="random&lt;br&gt;angka" style="ellipse;whiteSpace=wrap;html=1;" vertex="1" parent="1">
          <mxGeometry x="365" y="180" width="120" height="80" as="geometry" />
        </mxCell>
        <mxCell id="xz3piLwwKAhXTK9geHbD-13" value="computer" style="shape=umlActor;verticalLabelPosition=bottom;verticalAlign=top;html=1;outlineConnect=0;" vertex="1" parent="1">
          <mxGeometry x="200" y="265" width="30" height="60" as="geometry" />
        </mxCell>
        <mxCell id="xz3piLwwKAhXTK9geHbD-14" value="pemain" style="shape=umlActor;verticalLabelPosition=bottom;verticalAlign=top;html=1;outlineConnect=0;" vertex="1" parent="1">
          <mxGeometry x="590" y="265" width="30" height="60" as="geometry" />
        </mxCell>
        <mxCell id="xz3piLwwKAhXTK9geHbD-18" value="" style="endArrow=none;html=1;rounded=0;" edge="1" parent="1" target="xz3piLwwKAhXTK9geHbD-8">
          <mxGeometry width="50" height="50" relative="1" as="geometry">
            <mxPoint x="250" y="300" as="sourcePoint" />
            <mxPoint x="300" y="250" as="targetPoint" />
          </mxGeometry>
        </mxCell>
        <mxCell id="xz3piLwwKAhXTK9geHbD-19" value="" style="endArrow=none;html=1;rounded=0;entryX=0;entryY=0.5;entryDx=0;entryDy=0;" edge="1" parent="1" target="xz3piLwwKAhXTK9geHbD-10">
          <mxGeometry width="50" height="50" relative="1" as="geometry">
            <mxPoint x="250" y="300" as="sourcePoint" />
            <mxPoint x="300" y="250" as="targetPoint" />
          </mxGeometry>
        </mxCell>
        <mxCell id="xz3piLwwKAhXTK9geHbD-20" value="" style="endArrow=none;html=1;rounded=0;exitX=1;exitY=0.5;exitDx=0;exitDy=0;" edge="1" parent="1" source="xz3piLwwKAhXTK9geHbD-9">
          <mxGeometry width="50" height="50" relative="1" as="geometry">
            <mxPoint x="530" y="360" as="sourcePoint" />
            <mxPoint x="580" y="310" as="targetPoint" />
          </mxGeometry>
        </mxCell>
        <mxCell id="xz3piLwwKAhXTK9geHbD-22" value="game tebak angka" style="text;html=1;strokeColor=none;fillColor=none;align=center;verticalAlign=middle;whiteSpace=wrap;rounded=0;" vertex="1" parent="1">
          <mxGeometry x="363" y="140" width="125" height="30" as="geometry" />
        </mxCell>
      </root>
    </mxGraphModel>
  </diagram>
</mxfile>
